<?xml version="1.0" encoding="UTF-8"?>
<svg width="86px" height="74px" viewBox="0 0 86 74" version="1.1" xmlns="http://www.w3.org/2000/svg" xmlns:xlink="http://www.w3.org/1999/xlink">
    <!-- Generator: Sketch 41.1 (35376) - http://www.bohemiancoding.com/sketch -->
    <title>Slice 1</title>
    <desc>Created with Sketch.</desc>
    <defs></defs>
    <g id="Page-1" stroke="none" stroke-width="1" fill="none" fill-rule="evenodd">
        <polygon id="Shape" fill="#FFFFFF" points="29.6 58.7 0.2 64.4 4.2 71.4 31.2 71 32.2 67.4 29.1 63.8"></polygon>
        <path d="M20.3,40.3 C20.4,40.5 20.5,40.7 20.6,41 C21,42.1 21.4,42.8 22.1,43.5 L22.4,43.8 L22.2,44.1 C21.7,44.8 21.2,45.9 21,46.7 C20.9,47.1 20.8,47.5 20.7,47.4 C20.7,47.5 20.4,47.5 20.2,47.6 C18.7,48 17.5,48.7 16.4,50 C15.7,50.8 15.6,51.1 15.2,51.7 C13.9,54.6 14.2,57.6 16.2,59.8 C17.3,59.6 17.6,59.5 18.9,59.3 C16.5,57.9 15.5,54.9 16.8,52.1 C17.1,51.4 17.2,51.3 18.1,50.4 C19,49.6 19.2,49.3 19.8,49 C21,48.3 23.1,47.8 24,47.9 C24.5,48 24.8,47.8 24.6,47.6 C24.5,47.6 24,47.4 23.6,47.3 C23.2,47.2 22.8,47.1 22.7,47.1 C22.6,46.8 23.3,45.4 24,44.4 C24.7,43.4 24.9,43 25.9,41.9 C27,40.8 27,40.6 27,40.5 C26.9,40.3 25.4,41 24.4,41.5 L23.7,42 L23.5,41.7 C23.1,41.1 22.5,40.1 22.3,39.4 L20.3,40.3 Z" id="Shape" fill="#FFFFFF"></path>
        <path d="M30.8,30.5 C32.1,30.6 33,31 34.2,31.8 C35.2,32.4 35.4,32.5 35.3,32.2 C35.2,32.1 35,31.8 34.7,31.5 L34.2,31 L34.5,30.3 C34.9,29.3 35.5,28.5 36.2,27.9 C37.3,27.3 38.4,26.8 40.1,26.7 C41.1,26.7 41.5,26.7 42.2,26.9 C42.7,27.1 43.3,27.3 43.7,27.5 C44.5,27.9 45.5,28.9 46,29.6 C46.4,30.2 46.9,31.6 47,32.2 L47.1,32.6 L46.3,32.7 C45.2,32.8 43.6,33.3 43.4,33.5 C43.2,33.6 43.6,33.8 44.2,33.6 C45.4,33.4 46.8,33.5 48.2,34.2 C49.2,34.7 50.5,35.5 51.3,36.2 C51.6,35.1 51.6,35.2 51.8,34.2 C51.2,33.8 50.5,33.4 49.9,33.2 L49.2,32.9 L49.1,32.2 C48.8,30 47.7,28.1 46.1,26.8 C43.2,24.5 39.1,24.3 36,26.4 C35,27 33.6,28.6 33.1,29.6 C33,30 32.7,30.3 32.7,30.4 C32.7,30.5 32.5,30.4 32.1,30.3 C31.7,30.1 31.3,30 30.9,29.9 L30.8,30.5 Z" id="Shape" fill="#FFFFFF"></path>
        <path d="M55.3,1.1 C55.5,2.1 55.5,2.6 55.6,4.1 C55.6,5.8 55.6,6.3 55.3,7.5 C55.1,8.8 54.6,10.1 54,10.9 C53.7,11.3 53.4,11.7 53.3,11.6 C53.1,11.5 52.9,11 52.7,10.3 C52.6,10 52.5,9.6 52.5,9.6 C52.5,9.5 51.6,11.1 51.2,12.2 C50.5,14 50.2,15.4 50.2,17.2 C50.2,18.2 50.3,18.7 50.6,19.7 C51.3,22 52.8,24 54.8,25.4 C55.5,25.9 56.6,26.3 57,26.3 C57.2,26.3 57.2,26.2 57,25.8 C56.6,25.1 56.3,24 56.2,23.1 C56.1,22.3 56.1,20.8 56.3,19.9 C56.5,18.7 57,17.6 57.6,16.5 C57.8,16.1 58.6,15 58.9,14.8 C58.9,14.7 59,14.8 59.2,15.1 C60.6,16.6 61.4,19 61.2,21.2 C61.1,22.7 60.8,24.1 60.1,25.6 C59.9,26 59.8,26.4 59.8,26.4 C59.9,26.4 60.8,25.9 61.3,25.7 C61.5,25.6 61.8,25.4 61.8,25.4 C61.8,25.4 61.9,25.4 61.9,25.7 C62.5,27.1 63.7,28.5 65.7,29.4 C66,29.5 66.2,29.6 66.2,29.6 C66.2,29.5 66.1,29.3 66,29 C65.7,28.4 65.4,27.6 65.2,26.9 C65,26.2 65,24.9 65,24.3 C65.2,23.4 65.7,22.4 66.1,21.9 L66.3,21.7 L66.5,21.9 C66.8,22.2 67.2,23 67.6,23.6 C68.6,25.3 68.8,27.1 68.1,29 C68,29.4 67.9,29.7 67.9,29.7 C68,29.7 68.5,29.6 69,29.4 C69.5,29.1 70,28.7 70.6,28.3 C71.6,27.3 72.2,26 72.5,24.6 C72.6,23.9 72.6,22.7 72.5,22.1 C72.3,20.7 71.7,19.4 70.9,18.3 L70.7,18.1 L70.6,18.3 C70.6,18.4 70.5,18.6 70.5,18.7 C70.4,19.1 70.3,19.4 70.2,19.5 C70.1,19.6 69.8,19.1 69.6,18.6 C69,17.9 68.7,16.7 68.5,15.6 C68.4,15 68.3,13.2 68.4,12.5 C68.5,12.2 68.5,11.8 68.5,11.8 C68.5,11.8 68.2,12 67.8,12.4 C67.2,13 66.3,14 65.7,14.7 L65.5,14.9 L65.3,14.5 C65.2,14.3 65,13.9 64.8,13.5 C63.2,9.5 60,5.3 55.3,1.1 L54.9,0.9 L55.3,1.1 Z" id="Shape" fill="#FFFFFF"></path>
        <path d="M44.4,70.5 L62.3,62.2 C66.1,64.8 71.6,68.5 75.4,71 C80.2,74.1 83.6,73.5 85.1,71.1 C86.7,68.7 85.8,65.5 81,62.4 C77.2,59.9 71.6,56.2 67.7,53.8 L66.8,31.4 C66.8,31.4 62.8,31 61.1,27.8 C57.4,29.2 54.8,27.9 54.8,27.9 L50.7,43.4 L30,31.5 L29.4,17.9 L25.4,15.3 L21.1,29.6 L9.8,39.2 L13.8,41.8 L26.5,36.8 L45.9,50.7 L31.6,61.9 L36.4,62.2 L36.8,64.3 L43.7,65.4 L44.4,70.5 Z" id="Shape" fill="#FFFFFF"></path>
    </g>
</svg>