<?xml version="1.0" encoding="UTF-8"?>
<svg width="98px" height="52px" viewBox="0 0 98 52" version="1.1" xmlns="http://www.w3.org/2000/svg" xmlns:xlink="http://www.w3.org/1999/xlink">
    <!-- Generator: Sketch 41.1 (35376) - http://www.bohemiancoding.com/sketch -->
    <title>Slice 1</title>
    <desc>Created with Sketch.</desc>
    <defs></defs>
    <g id="Page-1" stroke="none" stroke-width="1" fill="none" fill-rule="evenodd">
        <g id="arrival" fill="#000000">
            <g id="Page-1">
                <g id="noun_720562_cc">
                    <g id="Group">
                        <path d="M95.3,36.8 C92.9,33.4 88,31 81.2,29.9 L81.1,29.9 L53.9,27 L42,3.3 C41.7,2.8 41.2,2.4 40.6,2.3 L29.4,0.3 C28.7,0.2 28.1,0.4 27.6,0.9 C27.2,1.4 27,2.1 27.2,2.7 L34.2,24.7 L16.3,22.8 L12.1,14.5 C11.8,14 11.3,13.6 10.7,13.5 L3.1,12.2 C2.4,12.1 1.8,12.3 1.3,12.8 C1,13.3 0.9,14 1.1,14.6 L6.8,32.4 C7.7,35.2 10.1,37.3 13,37.8 L21.3,39.3 L36.5,41.8 C36.2,42.4 36,43.1 36,43.9 C36,46.7 38.3,48.9 41,48.9 C43.8,48.9 46,46.6 46,43.9 L46,43.4 L48.9,43.9 C48.6,44.6 48.4,45.3 48.4,46.1 C48.4,48.9 50.7,51.1 53.4,51.1 C56.1,51.1 58.4,48.8 58.4,46.1 L58.4,45.5 L88,50.4 C88.6,50.5 89.1,50.5 89.6,50.5 C93.2,50.5 96,48.3 96.7,44.8 L96.9,43.5 C97.3,41.2 96.7,38.8 95.3,36.8 Z" id="Shape"></path>
                    </g>
                </g>
            </g>
        </g>
    </g>
</svg>