<?xml version="1.0" encoding="UTF-8"?>
<svg width="89px" height="92px" viewBox="0 0 89 92" version="1.1" xmlns="http://www.w3.org/2000/svg" xmlns:xlink="http://www.w3.org/1999/xlink">
    <!-- Generator: Sketch 41.1 (35376) - http://www.bohemiancoding.com/sketch -->
    <title>calendar</title>
    <desc>Created with Sketch.</desc>
    <defs></defs>
    <g id="Page-1" stroke="none" stroke-width="1" fill="none" fill-rule="evenodd">
        <g id="noun_697504_cc" transform="translate(1.000000, 0.000000)" fill="#000000">
            <g id="Group" transform="translate(0.000000, 0.637820)">
                <path d="M24.0312,0.36213 C22.9267,0.36213 22.0312,1.25763 22.0312,2.36213 L22.0312,14.61213 C18.5873,15.50333 16.0312,18.65273 16.0312,22.36213 C16.0312,26.75673 19.6366,30.36213 24.0312,30.36213 C28.4259,30.36213 32.0312,26.75673 32.0312,22.36213 C32.0312,18.66073 29.464,15.54243 26.0312,14.64343 L26.0312,2.36213 C26.0312,1.25763 25.1358,0.36213 24.0312,0.36213 Z M64.0312,0.36213 C62.9267,0.36213 62.0312,1.25763 62.0312,2.36213 L62.0312,14.61213 C58.5873,15.50333 56.0312,18.65273 56.0312,22.36213 C56.0312,26.75673 59.6366,30.36213 64.0312,30.36213 C68.4259,30.36213 72.0312,26.75673 72.0312,22.36213 C72.0312,18.66073 69.464,15.54243 66.0312,14.64343 L66.0312,2.36213 C66.0312,1.25763 65.1358,0.36213 64.0312,0.36213 Z M10.0312,6.36213 C4.5102,6.36213 -1.00000001e-07,10.87233 -1.00000001e-07,16.39343 L-1.00000001e-07,80.3309 C-1.00000001e-07,85.852 4.5102,90.3622 10.0312,90.3622 L77.9688,90.3622 C83.4898,90.3622 88,85.852 88,80.3309 L88,16.39343 C88,10.87233 83.4898,6.36213 77.9688,6.36213 L72,6.36213 C70.9434,6.34713 69.9688,7.30543 69.9688,8.36213 C69.9688,9.41893 70.9434,10.37713 72,10.36213 L77.9688,10.36213 C81.3392,10.36213 84,13.02293 84,16.39343 L84,34.36213 L3.9999999,34.36213 L3.9999999,16.39343 C3.9999999,13.02293 6.6607,10.36213 10.0312,10.36213 L16,10.36213 C17.0566,10.37713 18.0312,9.41893 18.0312,8.36213 C18.0312,7.30543 17.0566,6.34723 16,6.36213 L10.0312,6.36213 L10.0312,6.36213 Z M32,6.36213 C30.8954,6.36213 30,7.25753 30,8.36213 C30,9.46673 30.8954,10.36213 32,10.36213 L56,10.36213 C57.1046,10.36213 58,9.46673 58,8.36213 C58,7.25753 57.1046,6.36213 56,6.36213 L32,6.36213 Z M24.0312,18.36213 C26.264,18.36213 28.0312,20.12933 28.0312,22.36213 C28.0312,24.59503 26.264,26.36213 24.0312,26.36213 C21.7985,26.36213 20.0312,24.59503 20.0312,22.36213 C20.0312,20.12933 21.7985,18.36213 24.0312,18.36213 Z M64.0312,18.36213 C66.264,18.36213 68.0312,20.12933 68.0312,22.36213 C68.0312,24.59503 66.264,26.36213 64.0312,26.36213 C61.7985,26.36213 60.0312,24.59503 60.0312,22.36213 C60.0312,20.12933 61.7985,18.36213 64.0312,18.36213 Z M3.9999999,38.36213 L84,38.36213 L84,80.3309 C84,83.7014 81.3391,86.3622 77.9688,86.3622 L10.0312,86.3622 C6.6607,86.3622 3.9999999,83.7014 3.9999999,80.3309 L3.9999999,38.36213 Z" id="Shape"></path>
            </g>
        </g>
    </g>
</svg>