<?xml version="1.0" encoding="UTF-8"?>
<svg width="164px" height="164px" viewBox="0 0 164 164" version="1.1" xmlns="http://www.w3.org/2000/svg" xmlns:xlink="http://www.w3.org/1999/xlink">
    <!-- Generator: Sketch 41.1 (35376) - http://www.bohemiancoding.com/sketch -->
    <title>Slice 1</title>
    <desc>Created with Sketch.</desc>
    <defs></defs>
    <g id="Page-1" stroke="none" stroke-width="1" fill="none" fill-rule="evenodd">
        <circle id="Oval" fill="#282F44" cx="82" cy="82" r="82"></circle>
        <path d="M41,44.999985 C38.81861,44.999985 37,46.818595 37,48.999985 L37,115.000015 C37,117.181415 38.81861,119.000015 41,119.000015 L111,119.000015 C111.528816,118.995764 112.034429,118.782265 112.40625,118.406215 L126.40625,104.406215 C126.782269,104.034398 126.995749,103.528807 127,103.000015 L127,48.999985 C127,46.818595 125.18139,44.999985 123,44.999985 L41,44.999985 L41,44.999985 Z M41,48.999985 L123,48.999985 L123,64.999985 L41,64.999985 L41,48.999985 Z M59,50.999985 C55.70998,50.999985 53,53.709955 53,56.999985 C53,60.289995 55.70997,62.999985 59,62.999985 C62.29003,62.999985 65,60.289995 65,56.999985 C65,53.709955 62.29002,50.999985 59,50.999985 Z M105,50.999985 C101.70998,50.999985 99,53.709955 99,56.999985 C99,60.289995 101.70997,62.999985 105,62.999985 C108.29003,62.999985 111,60.289995 111,56.999985 C111,53.709955 108.29002,50.999985 105,50.999985 Z M59,54.999985 C60.12826,54.999985 61,55.871725 61,56.999985 C61,58.128225 60.12825,58.999985 59,58.999985 C57.87175,58.999985 57,58.128225 57,56.999985 C57,55.871725 57.87174,54.999985 59,54.999985 Z M105,54.999985 C106.12826,54.999985 107,55.871725 107,56.999985 C107,58.128225 106.12825,58.999985 105,58.999985 C103.87175,58.999985 103,58.128225 103,56.999985 C103,55.871725 103.87174,54.999985 105,54.999985 Z M41,69.000015 L123,69.000015 L123,101.000015 L113,101.000015 C110.81858,101.000015 109,102.818615 109,105.000015 L109,115.000015 L41,115.000015 L41,69.000015 Z M113,105.000015 L120.15625,105.000015 L113,112.156215 L113,105.000015 Z" id="Shape" fill="#FFFFFF"></path>
    </g>
</svg>