<?xml version="1.0" encoding="UTF-8"?>
<svg width="164px" height="164px" viewBox="0 0 164 164" version="1.1" xmlns="http://www.w3.org/2000/svg" xmlns:xlink="http://www.w3.org/1999/xlink">
    <!-- Generator: Sketch 41.1 (35376) - http://www.bohemiancoding.com/sketch -->
    <title>Slice 1</title>
    <desc>Created with Sketch.</desc>
    <defs></defs>
    <g id="Page-1" stroke="none" stroke-width="1" fill="none" fill-rule="evenodd">
        <circle id="Oval" fill="#282F44" cx="82" cy="82" r="82"></circle>
        <path d="M104.502469,81.0473606 C101.071339,76.6484768 97.3762769,73.6572358 95.3527904,72.1616153 L100.27954,49.9032633 C100.455496,49.1994419 100.27954,48.4076428 99.8396519,47.8797768 C99.3997635,47.263933 98.6959421,47 97.904143,47 L80.6605185,47 C79.7807417,47 78.900965,47.5278661 78.4610766,48.3196651 L75.4698356,53.8622587 L75.2059026,53.8622587 L61.3934074,53.8622587 C60.5136307,53.8622587 59.7218316,54.3021471 59.2819432,55.0939462 C58.8420548,55.8857453 58.8420548,56.765522 59.2819432,57.5573211 L67.0239787,70.7539725 C66.936001,70.8419502 66.8480234,70.8419502 66.8480234,70.9299279 C51.4519301,85.2702891 51.6278854,95.9155879 54.5311487,102.337958 C57.7863227,109.640105 65.1764475,113.687078 70.8949965,115.798543 C76.6135454,117.997985 83.1238934,119.141694 89.2823307,119.141694 C90.6899736,119.141694 92.0976164,119.053717 93.4172815,118.965739 C103.182804,118.085962 109.693152,114.038989 111.188772,107.968529 C113.388214,98.7308735 111.100794,89.4052398 104.502469,81.0473606 Z M106.35,106.82482 C105.382245,110.695837 100.367518,113.423145 92.8894155,114.126967 C80.0446748,115.270677 63.3289163,110.079994 59.0180102,100.314472 C55.8508139,93.2762576 59.6338539,84.3905123 69.927242,74.7129679 C69.927242,74.7129679 70.0152197,74.7129679 70.0152197,74.8009456 C71.2469072,75.504767 72.7425277,75.8566777 74.5020812,75.8566777 C76.7895007,75.8566777 79.5168087,75.240834 82.684005,74.0971242 C83.9156925,73.6572358 84.6195139,72.249593 84.0916479,70.9299279 C83.6517595,69.6982404 82.2441167,68.994419 80.9244515,69.5222851 C75.4698356,71.5457716 73.2703937,71.0179056 72.65455,70.6659948 C72.3026393,70.4900395 72.2146616,70.3140841 72.2146616,70.2261065 C72.1266839,69.9621734 72.0387062,69.6982404 71.9507286,69.4343074 L65.6163359,58.6130532 L72.918483,58.6130532 C72.4785946,59.756763 72.918483,61.0764282 74.0621928,61.6922719 C75.2938803,62.3081156 76.7015231,61.8682272 77.4053445,60.6365398 L82.156139,51.7507945 L94.912902,51.7507945 L90.3380629,72.6015037 C90.0741298,73.5692582 90.5140182,74.6249903 91.393795,75.1528563 C91.5697503,75.4167894 110.924839,87.997597 106.35,106.82482 Z M87.4347995,92.3964808 C86.6430005,91.8686148 85.3233353,91.4287264 83.5637818,91.0768157 C82.2441167,90.8128827 81.5402953,90.4609719 81.4523176,90.1090612 C81.3643399,89.4932175 81.892206,89.1413068 82.9479381,89.0533291 C84.0036702,88.9653515 85.411313,89.3172622 87.1708665,90.0210836 L88.138621,84.9183784 C87.5227772,84.742423 86.8189558,84.5664677 86.1151344,84.47849 C85.411313,84.3905123 84.7954693,84.214557 84.0916479,84.214557 L84.0036702,81.223316 L79.0769203,81.6632043 L79.164898,84.8304007 C77.8452329,85.2702891 76.8774784,85.9741105 76.0856793,87.0298426 C75.2938803,88.0855747 75.0299472,89.3172622 75.1179249,90.5489496 C75.2938803,92.3085031 76.0856793,93.5401906 77.4933222,94.4199674 C78.1971436,94.8598557 79.5168087,95.2997441 81.3643399,95.7396325 C82.7719827,96.0915432 83.4758041,96.5314316 83.4758041,96.97132 C83.5637818,97.5871637 83.2118711,97.8510967 82.420072,97.9390744 C80.9244515,98.0270521 79.164898,97.6751414 77.4053445,96.8833423 L76.7015231,102.425936 C77.4053445,102.689869 78.1091659,102.865824 78.7250096,102.953802 C79.428831,103.129757 80.0446748,103.217735 80.6605185,103.305713 L80.7484962,106.736842 L85.7632237,106.296954 L85.675246,102.601891 C86.9949112,102.162003 88.0506433,101.370204 88.8424424,100.226494 C89.5462638,99.0827842 89.8981745,97.7631191 89.8101968,96.3554762 C89.6342414,94.5959227 88.8424424,93.2762576 87.4347995,92.3964808 Z" id="Shape" fill="#FFFFFF"></path>
    </g>
</svg>