<?xml version="1.0" encoding="UTF-8"?>
<svg width="96px" height="50px" viewBox="0 0 96 50" version="1.1" xmlns="http://www.w3.org/2000/svg" xmlns:xlink="http://www.w3.org/1999/xlink">
    <!-- Generator: Sketch 41.1 (35376) - http://www.bohemiancoding.com/sketch -->
    <title>Slice 1</title>
    <desc>Created with Sketch.</desc>
    <defs></defs>
    <g id="Page-1" stroke="none" stroke-width="1" fill="none" fill-rule="evenodd">
        <g id="departure" fill="#000000">
            <g id="Page-1">
                <g id="noun_720560_cc">
                    <g id="Group">
                        <path d="M95.3,7.1 L94.8,6 C93.8,3.8 92,2.2 89.6,1.4 C85.7,0 80.4,0.8 74.3,3.8 L74.2,3.8 L50.6,16.8 L27.8,4.4 C27.3,4.1 26.6,4.1 26.1,4.4 L16,9.1 C15.4,9.4 15,10 14.9,10.6 C14.8,11.3 15.1,11.9 15.6,12.3 L33.7,26 L18.2,34.5 L10.1,30.1 C9.6,29.8 8.9,29.8 8.4,30.1 L1.5,33.3 C0.9,33.6 0.5,34.2 0.4,34.8 C0.3,35.5 0.6,36.1 1.1,36.5 L15.8,47.7 C17.2,48.8 18.8,49.3 20.5,49.3 C21.6,49.3 22.7,49.1 23.8,48.6 L31.3,45.1 L91.3,16.4 C93.1,15.6 94.5,14.2 95.2,12.6 C96.2,10.9 96.2,9 95.3,7.1 Z" id="Shape"></path>
                    </g>
                </g>
            </g>
        </g>
    </g>
</svg>