<?xml version="1.0" encoding="UTF-8"?>
<svg width="17px" height="17px" viewBox="0 0 17 17" version="1.1" xmlns="http://www.w3.org/2000/svg" xmlns:xlink="http://www.w3.org/1999/xlink">
    <!-- Generator: Sketch 41.1 (35376) - http://www.bohemiancoding.com/sketch -->
    <title>logo</title>
    <desc>Created with Sketch.</desc>
    <defs></defs>
    <g id="Page-1" stroke="none" stroke-width="1" fill="none" fill-rule="evenodd">
        <path d="M8.5,16 C12.6421356,16 16,12.6421356 16,8.5 C16,6.89178374 15.6294304,5.46784574 14.7677002,4.2467041 C14.5473977,3.93451766 15.6730752,1.88646532 15.4088135,1.61193848 C15.1946138,1.38941836 13.3140619,2.76234966 13.0739746,2.56756592 C11.7847481,1.52161152 10.2895216,1 8.5,1 C4.35786438,1 1,4.35786438 1,8.5 C1,12.6421356 4.35786438,16 8.5,16 Z" id="Oval" stroke="#FFFFFF" stroke-width="0.85" fill="#17BEBB"></path>
        <path d="M5.30597808,12.3320218 C5.30597808,12.3320218 1.72843906,11.0444623 2.75376842,10.4237283 C3.77909779,9.80299425 13.3758674,4.01923482 13.3758674,4.01923482 L15.2877688,5.34344561 L12.1339162,14.2304971 C11.3615441,15.0490969 9.11789855,13.9686462 7.0599063,13.1030302 C6.71558335,12.9582039 6.50939479,13.8811419 6.23994281,13.7627647 C4.35999668,12.936856 5.30597808,13.4381608 5.30597808,13.4381608 L5.30597808,12.3320218 Z" id="Path-2" fill="#12ACA9"></path>
        <path d="M8.5,16 C12.6421356,16 16,12.6421356 16,8.5 C16,6.89178374 15.6294304,5.46784574 14.7677002,4.2467041 C14.5473977,3.93451766 15.6730752,1.88646532 15.4088135,1.61193848 C15.1946138,1.38941836 13.3140619,2.76234966 13.0739746,2.56756592 C11.7847481,1.52161152 10.2895216,1 8.5,1 C4.35786438,1 1,4.35786438 1,8.5 C1,12.6421356 4.35786438,16 8.5,16 Z" id="Oval" stroke="#FFFFFF" stroke-width="0.85"></path>
        <path d="M15.9243614,8.74459076 C15.8486728,8.89903036 15.7274836,9.01409445 15.5848567,9.08234547 C15.5835442,9.08234547 15.5848567,9.08234547 15.5848567,9.08322047 L12.9375075,10.4066762 L12.9375075,13.1231513 C12.9375075,13.4355307 12.6855041,13.6875342 12.3739997,13.6875342 C12.21956,13.6875342 12.0808707,13.6240958 11.9802443,13.5243445 L10.3129087,11.7183194 L7.47830691,13.1362766 C7.44374383,13.1524643 7.40786845,13.168652 7.37024281,13.1822147 C6.79929746,13.3917802 6.16753871,13.0995261 5.95753579,12.5285806 C5.95622328,12.5233306 5.95316074,12.5233306 5.95228573,12.5193931 L2.03266892,1.7191184 C2.03179391,1.71693086 2.03266892,1.71693086 2.03179391,1.71386832 C1.93204252,1.43736449 2.07466949,1.13198525 2.35248585,1.03092135 C2.5003629,0.977983128 2.65567755,0.99548337 2.78430433,1.06460932 L15.6062945,7.77245227 C15.9571744,7.95751738 16.1011138,8.3875858 15.9243614,8.74459076 L15.9243614,8.74459076 Z" id="Shape" fill="#323E42" transform="translate(9.000000, 7.343767) scale(-1, 1) translate(-9.000000, -7.343767) "></path>
        <path d="M9.32067107,12.0203171 L9.32067107,10.3486065 C9.33073364,10.3402939 9.33598376,10.3332938 9.32898364,10.3302312 C9.32592107,10.3289187 9.32285864,10.3149185 9.32067107,10.2943557 L9.32067107,9.8021614 L9.31542094,9.8056614 C9.31760851,9.64290924 9.32067107,9.50509476 9.32067107,9.50509476 L6,7.14999962 L8.45922154,9.93210074 L8.46009667,9.93210074 L8.55634794,10.0414773 L8.63072396,10.1259159 L8.63072396,10.1259159 L8.76066331,10.2737929 L8.05015338,10.6242353 L9.32067107,12.0203171 L9.32067107,12.0203171 Z" id="Shape-path" fill="#FFFFFF" transform="translate(7.666092, 9.585158) scale(-1, 1) translate(-7.666092, -9.585158) "></path>
        <polygon id="Shape-path" fill="#FFFFFF" transform="translate(8.880300, 7.092571) scale(-1, 1) translate(-8.880300, -7.092571) " points="3 2 6.69648871 12.1851411 10.1037859 10.4806176 10.1037859 10.4806176 10.6252932 10.2198639 5.75935073 4.78253852 12.3635047 9.3509769 14.7606005 8.1526478"></polygon>
    </g>
</svg>