<?xml version="1.0" encoding="UTF-8"?>
<svg width="22px" height="22px" viewBox="0 0 22 22" version="1.1" xmlns="http://www.w3.org/2000/svg" xmlns:xlink="http://www.w3.org/1999/xlink">
    <!-- Generator: Sketch 41.1 (35376) - http://www.bohemiancoding.com/sketch -->
    <title>noun_684828_cc</title>
    <desc>Created with Sketch.</desc>
    <defs></defs>
    <g id="Page-1" stroke="none" stroke-width="1" fill="none" fill-rule="evenodd">
        <path d="M18.313,2.563 L16.625,2.563 L16.625,0.875 L15.5,0.875 L15.5,2.563 L6.5,2.563 L6.5,0.875 L5.375,0.875 L5.375,2.563 L3.688,2.563 C2.137,2.563 0.875,3.825 0.875,5.376 L0.875,18.314 C0.875,19.865 2.137,21.127 3.688,21.127 L18.313,21.127 C19.864,21.127 21.126,19.865 21.126,18.314 L21.126,8.188 L21.126,7.063 L21.126,5.375 C21.125,3.824 19.863,2.563 18.313,2.563 Z M20,18.313 C20,19.243 19.243,20 18.313,20 L3.688,20 C2.757,20 2,19.243 2,18.313 L2,8.188 L20,8.188 L20,18.313 Z M20,7.063 L2,7.063 L2,5.375 C2,4.444 2.757,3.687 3.688,3.687 L5.376,3.687 L5.376,4.812 L6.5,4.812 L6.5,3.688 L15.5,3.688 L15.5,4.813 L16.625,4.813 L16.625,3.688 L18.313,3.688 C19.243,3.688 20,4.444 20,5.375 L20,7.063 Z" id="Shape" fill="#323E42"></path>
        <path d="M20,18.313 C20,19.243 19.243,20 18.313,20 L3.688,20 C2.757,20 2,19.243 2,18.313 L2,8.188 L20,8.188 L20,18.313 Z" id="Path" fill="#FFFFFF"></path>
        <path d="M20,7.063 L2,7.063 L2,5.375 C2,4.444 2.757,3.687 3.688,3.687 L5.376,3.687 L5.376,4.812 L6.5,4.812 L6.5,3.688 L15.5,3.688 L15.5,4.813 L16.625,4.813 L16.625,3.688 L18.313,3.688 C19.243,3.688 20,4.444 20,5.375 L20,7.063 Z" id="Path" fill="#15ADAA"></path>
        <path d="M16.9405697,15.0850356 C16.8811001,15.206381 16.78588,15.2967885 16.673816,15.3504143 C16.6727847,15.3504143 16.673816,15.3504143 16.673816,15.3511018 L14.5937559,16.3909599 L14.5937559,18.5253332 C14.5937559,18.7707741 14.3957532,18.9687769 14.1509998,18.9687769 C14.0296543,18.9687769 13.9206841,18.9189324 13.8416205,18.8405564 L12.5315711,17.4215367 L10.304384,18.5356459 C10.2772273,18.5483648 10.2490395,18.5610837 10.2194765,18.5717401 C9.77087658,18.7363987 9.2744947,18.5067705 9.10949241,18.0581705 C9.10846115,18.0540455 9.10605487,18.0540455 9.10536736,18.0509517 L6.02566844,9.5650216 C6.02498093,9.56330282 6.02566844,9.56330282 6.02498093,9.56089654 C5.94660484,9.34364353 6.05866889,9.1037027 6.27695317,9.02429535 C6.39314228,8.98270103 6.51517522,8.99645122 6.61623912,9.05076447 L16.69066,14.3212125 C16.9663513,14.4666208 17.0794466,14.8045317 16.9405697,15.0850356 L16.9405697,15.0850356 Z M13.9062464,17.9371688 L13.9062464,16.6236819 C13.9141527,16.6171506 13.9182778,16.6116505 13.9127777,16.6092442 C13.9103714,16.6082129 13.9079652,16.5972128 13.9062464,16.5810563 L13.9062464,16.1943322 L13.9021213,16.1970822 C13.9038401,16.0692055 13.9062464,15.9609227 13.9062464,15.9609227 L11.2971477,14.1104908 L13.2293932,16.2964274 L13.2300808,16.2964274 L13.3057068,16.3823661 L13.3641451,16.4487107 L13.3641451,16.4487107 L13.4662403,16.5648998 L12.9079825,16.8402474 L13.9062464,17.9371688 L13.9062464,17.9371688 Z M6.92561841,9.99334003 L9.8300024,17.9959509 L12.5071645,16.6566824 L12.5071645,16.6566824 L12.9169202,16.4518045 L9.0936797,12.1796203 L14.2826578,15.7691076 L16.1660902,14.8275633 L6.92561841,9.99334003 L6.92561841,9.99334003 Z" id="Shape" fill="#323E42" transform="translate(11.500000, 13.984388) scale(-1, 1) translate(-11.500000, -13.984388) "></path>
    </g>
</svg>