<svg xmlns="http://www.w3.org/2000/svg" xmlns:xlink="http://www.w3.org/1999/xlink" version="1.1" x="0px" y="0px" viewBox="0 0 100 125" style="enable-background:new 0 0 100 100;" xml:space="preserve"><g><path d="M49.9,83.5H18.3c-1.1,0-1.9,0.9-1.9,1.9c0,1.1,0.9,1.9,1.9,1.9h31.6c1.1,0,1.9-0.9,1.9-1.9S50.9,83.5,49.9,83.5z"/><path d="M4.6,39.6l12.7-5.2c1-0.4,1.4-1.5,1.1-2.5c-0.4-1-1.5-1.4-2.5-1.1L3.2,36c-1,0.4-1.4,1.5-1.1,2.5c0.3,0.7,1,1.2,1.8,1.2   C4.1,39.7,4.4,39.7,4.6,39.6z"/><path d="M72.6,74.1H8c-1.1,0-1.9,0.9-1.9,1.9c0,1.1,0.9,1.9,1.9,1.9h64.6c1.1,0,1.9-0.9,1.9-1.9C74.5,74.9,73.7,74.1,72.6,74.1z"/><path d="M97.3,21.1L96.8,20c-1-2.2-2.8-3.8-5.2-4.6c-3.9-1.4-9.2-0.6-15.3,2.4h-0.1l-23.6,13L29.8,18.4c-0.5-0.3-1.2-0.3-1.7,0   L18,23.1c-0.6,0.3-1,0.9-1.1,1.5c-0.1,0.7,0.2,1.3,0.7,1.7L35.7,40l-15.5,8.5l-8.1-4.4c-0.5-0.3-1.2-0.3-1.7,0l-6.9,3.2   c-0.6,0.3-1,0.9-1.1,1.5c-0.1,0.7,0.2,1.3,0.7,1.7l14.7,11.2c1.4,1.1,3,1.6,4.7,1.6c1.1,0,2.2-0.2,3.3-0.7l7.5-3.5l60-28.7   c1.8-0.8,3.2-2.2,3.9-3.8C98.2,24.9,98.2,23,97.3,21.1z"/><path d="M89.1,74.1h-6.9c-1.1,0-1.9,0.9-1.9,1.9c0,1.1,0.9,1.9,1.9,1.9h6.9c1.1,0,1.9-0.9,1.9-1.9C91.1,74.9,90.2,74.1,89.1,74.1z"/></g><text x="0" y="115" fill="#000000" font-size="5px" font-weight="bold" font-family="'Helvetica Neue', Helvetica, Arial-Unicode, Arial, Sans-serif">Created by Harsha Rai</text><text x="0" y="120" fill="#000000" font-size="5px" font-weight="bold" font-family="'Helvetica Neue', Helvetica, Arial-Unicode, Arial, Sans-serif">from the Noun Project</text></svg>