<svg xmlns:dc="http://purl.org/dc/elements/1.1/" xmlns:cc="http://creativecommons.org/ns#" xmlns:rdf="http://www.w3.org/1999/02/22-rdf-syntax-ns#" xmlns:svg="http://www.w3.org/2000/svg" xmlns="http://www.w3.org/2000/svg" xmlns:sodipodi="http://sodipodi.sourceforge.net/DTD/sodipodi-0.dtd" xmlns:inkscape="http://www.inkscape.org/namespaces/inkscape" version="1.1" x="0px" y="0px" viewBox="0 0 100 125"><g transform="translate(0,-952.36218)"><path style="text-indent:0;text-transform:none;direction:ltr;block-progression:tb;baseline-shift:baseline;color:#000000;enable-background:accumulate;" d="m 30.0312,957.36213 c -1.1045,0 -2,0.8955 -2,2 l 0,12.25 c -3.4439,0.8912 -6,4.0406 -6,7.75 0,4.3946 3.6054,8 8,8 4.3947,0 8,-3.6054 8,-8 0,-3.7014 -2.5672,-6.8197 -6,-7.7187 l 0,-12.2813 c 0,-1.1045 -0.8954,-2 -2,-2 z m 40,0 c -1.1045,0 -2,0.8955 -2,2 l 0,12.25 c -3.4439,0.8912 -6,4.0406 -6,7.75 0,4.3946 3.6054,8 8,8 4.3947,0 8,-3.6054 8,-8 0,-3.7014 -2.5672,-6.8197 -6,-7.7187 l 0,-12.2813 c 0,-1.1045 -0.8954,-2 -2,-2 z m -54,6 c -5.521,0 -10.0312001,4.5102 -10.0312001,10.0313 l 0,63.93747 c 0,5.5211 4.5102001,10.0313 10.0312001,10.0313 l 67.9376,0 c 5.521,0 10.0312,-4.5102 10.0312,-10.0313 l 0,-63.93747 c 0,-5.5211 -4.5102,-10.0313 -10.0312,-10.0313 l -5.9688,0 c -1.0566,-0.015 -2.0312,0.9433 -2.0312,2 0,1.0568 0.9746,2.015 2.0312,2 l 5.9688,0 c 3.3704,0 6.0312,2.6608 6.0312,6.0313 l 0,17.9687 -80.0000001,0 0,-17.9687 c 0,-3.3705 2.6607001,-6.0313 6.0312001,-6.0313 l 5.9688,0 c 1.0566,0.015 2.0312,-0.9432 2.0312,-2 0,-1.0567 -0.9746,-2.0149 -2.0312,-2 l -5.9688,0 z m 21.9688,0 c -1.1046,0 -2,0.8954 -2,2 0,1.1046 0.8954,2 2,2 l 24,0 c 1.1046,0 2,-0.8954 2,-2 0,-1.1046 -0.8954,-2 -2,-2 l -24,0 z m -7.9688,12 c 2.2328,0 4,1.7672 4,4 0,2.2329 -1.7672,4 -4,4 -2.2327,0 -4,-1.7671 -4,-4 0,-2.2328 1.7673,-4 4,-4 z m 40,0 c 2.2328,0 4,1.7672 4,4 0,2.2329 -1.7672,4 -4,4 -2.2327,0 -4,-1.7671 -4,-4 0,-2.2328 1.7673,-4 4,-4 z m -60.0312001,20 80.0000001,0 0,41.96877 c 0,3.3705 -2.6609,6.0313 -6.0312,6.0313 l -67.9376,0 c -3.3705,0 -6.0312001,-2.6608 -6.0312001,-6.0313 l 0,-41.96877 z" fill="#000000" fill-opacity="1" stroke="none" marker="none" visibility="visible" display="inline" overflow="visible"/></g><text x="0" y="115" fill="#000000" font-size="5px" font-weight="bold" font-family="'Helvetica Neue', Helvetica, Arial-Unicode, Arial, Sans-serif">Created by iconsphere</text><text x="0" y="120" fill="#000000" font-size="5px" font-weight="bold" font-family="'Helvetica Neue', Helvetica, Arial-Unicode, Arial, Sans-serif">from the Noun Project</text></svg>