<svg xmlns="http://www.w3.org/2000/svg" xmlns:xlink="http://www.w3.org/1999/xlink" version="1.1" x="0px" y="0px" viewBox="0 0 100 125" style="enable-background:new 0 0 100 100;" xml:space="preserve"><g><path d="M49.9,84.9H17.8c-1.1,0-1.9,0.9-1.9,1.9c0,1.1,0.9,1.9,1.9,1.9h32.1c1.1,0,1.9-0.9,1.9-1.9C51.8,85.7,50.9,84.9,49.9,84.9z   "/><path d="M9.8,17.2l13.5,3.1c0.1,0,0.3,0,0.4,0c0.9,0,1.7-0.6,1.9-1.5c0.2-1-0.4-2.1-1.4-2.3l-13.5-3.1c-1-0.2-2.1,0.4-2.3,1.4   C8.1,15.9,8.8,16.9,9.8,17.2z"/><path d="M89.8,75.3h-7c-1.1,0-1.9,0.9-1.9,1.9c0,1.1,0.9,1.9,1.9,1.9h7c1.1,0,1.9-0.9,1.9-1.9C91.7,76.1,90.8,75.3,89.8,75.3z"/><path d="M96.3,47.8c-2.4-3.4-7.3-5.8-14.1-6.9c0,0-0.1,0-0.1,0l-27.2-2.9L43,14.3c-0.3-0.5-0.8-0.9-1.4-1l-11.2-2   c-0.7-0.1-1.3,0.1-1.8,0.6c-0.4,0.5-0.6,1.2-0.4,1.8l7,22l-17.9-1.9l-4.2-8.3c-0.3-0.5-0.8-0.9-1.4-1l-7.6-1.3   c-0.7-0.1-1.3,0.1-1.8,0.6C2,24.3,1.9,25,2.1,25.6l5.7,17.8c0.9,2.8,3.3,4.9,6.2,5.4l8.3,1.5l15.2,2.5c-0.3,0.6-0.5,1.3-0.5,2.1   c0,2.8,2.3,5,5,5c2.8,0,5-2.3,5-5c0-0.2,0-0.3,0-0.5l2.9,0.5c-0.3,0.7-0.5,1.4-0.5,2.2c0,2.8,2.3,5,5,5s5-2.3,5-5   c0-0.2,0-0.4,0-0.6L89,61.4c0.6,0.1,1.1,0.1,1.6,0.1c3.6,0,6.4-2.2,7.1-5.7l0.2-1.3C98.3,52.2,97.7,49.8,96.3,47.8z"/><path d="M73,75.3H7.3c-1.1,0-1.9,0.9-1.9,1.9c0,1.1,0.9,1.9,1.9,1.9H73c1.1,0,1.9-0.9,1.9-1.9C74.9,76.1,74,75.3,73,75.3z"/></g><text x="0" y="115" fill="#000000" font-size="5px" font-weight="bold" font-family="'Helvetica Neue', Helvetica, Arial-Unicode, Arial, Sans-serif">Created by Harsha Rai</text><text x="0" y="120" fill="#000000" font-size="5px" font-weight="bold" font-family="'Helvetica Neue', Helvetica, Arial-Unicode, Arial, Sans-serif">from the Noun Project</text></svg>