<?xml version="1.0" encoding="UTF-8"?>
<svg width="76px" height="78px" viewBox="0 0 76 78" version="1.1" xmlns="http://www.w3.org/2000/svg" xmlns:xlink="http://www.w3.org/1999/xlink">
    <!-- Generator: Sketch 41.1 (35376) - http://www.bohemiancoding.com/sketch -->
    <title>Slice 1</title>
    <desc>Created with Sketch.</desc>
    <defs></defs>
    <g id="Page-1" stroke="none" stroke-width="1" fill="none" fill-rule="evenodd">
        <path d="M38.4,39 C39.8,39 41.2,39.6 42.3,40.5 L42.3,39.5 C42.3,38.4 42.4,37.5 42.7,36.7 C41.3,36.9 39.9,37 38.4,37 C36.9,37 35.4,36.9 34.1,36.7 C34.4,37.5 34.6,38.4 34.5,39.5 L34.5,40.5 C35.5,39.6 36.9,39 38.4,39 Z" id="Shape"></path>
        <path d="M16.2,35.5 C15.3,36.5 14.9,37.8 14.9,39.5 C14.9,42.6 16.5,46.3 18.8,48.7 C19.9,49.8 21.8,51.2 24.3,51.2 L24.4,51.2 C26.8,51.2 28.7,49.8 29.8,48.7 C32.1,46.4 33.7,42.7 33.5,39.5 C33.6,38.3 33.3,37.3 32.9,36.6 C29,36 25.6,34.8 22.9,33.4 C19.6,33.6 17.4,34.3 16.2,35.5 Z" id="Shape" fill="#FFFFFF"></path>
        <path d="M43.1,39.5 C43.1,42.6 44.7,46.3 47,48.7 C48.1,49.8 50,51.2 52.5,51.2 L52.6,51.2 C55,51.2 56.9,49.8 58,48.7 C60.3,46.4 61.9,42.7 61.7,39.5 C61.8,37.7 61.3,36.4 60.4,35.5 C59.2,34.2 57.1,33.5 53.9,33.3 C51.1,34.7 47.7,35.9 43.7,36.5 C43.3,37.4 43.1,38.3 43.1,39.5 Z" id="Shape" fill="#FFFFFF"></path>
        <path d="M62.5,25.8 C62.1,25.9 61.5,25.9 60.8,26 C56.3,26.6 46.7,27.7 38.1,27.7 C29.5,27.7 20.3,26.6 15.9,26 C15.2,25.9 14.7,25.8 14.3,25.8 C14.5,26.1 14.8,26.4 15.2,26.8 C16.7,28.3 19.2,30.6 22.9,32.5 C23.4,32.8 23.9,33 24.5,33.3 C26.7,34.3 29.4,35.2 32.3,35.7 C32.7,35.8 33.2,35.8 33.6,35.9 C35.1,36.1 36.7,36.2 38.3,36.2 C40,36.2 41.5,36.1 43,35.9 C43.4,35.8 43.7,35.8 44.1,35.7 C47.2,35.2 49.8,34.3 52.1,33.3 C52.6,33.1 53.2,32.8 53.7,32.5 C57.4,30.6 59.9,28.4 61.4,26.8 C61.9,26.5 62.3,26.1 62.5,25.8 Z" id="Shape" fill="#FFFFFF"></path>
        <path d="M67.1,36.8 C66,33.4 64.2,30.2 62,27.5 C60.6,28.9 58.3,30.9 55.2,32.7 C59.7,33.2 62.8,34.9 62.7,39.4 C62.8,41.5 62.1,43.9 61,46 C60.7,46.6 60.4,47 60.1,47.5 C58.3,50.2 55.6,52.1 52.5,52.1 C47.6,52.1 43.9,47.3 42.7,42.6 C41.8,41 40.2,40 38.4,40 C36.6,40 35,41 34.1,42.6 C32.9,47.3 29.2,52.1 24.3,52.1 C21.1,52.1 18.4,50.1 16.6,47.4 C16.5,47.2 16.4,47.1 16.3,46.9 L16.3,46.8 C16.1,46.6 16,46.4 15.9,46.2 C14.7,44 14.1,41.6 14.1,39.5 C14,34.9 17,33.1 21.6,32.6 C18.4,30.8 16.2,28.8 14.8,27.4 C12.5,30.1 10.7,33.3 9.5,36.7 C4.6,37.4 0.8,41.6 0.8,46.7 C0.8,51.8 4.6,56 9.5,56.7 C13.6,68.6 24.9,77.1 38.2,77 C51.5,76.9 62.7,68.4 66.9,56.7 C71.7,55.9 75.4,51.8 75.4,46.7 C75.3,41.8 71.8,37.7 67.1,36.8 Z M49.5,66.5 C44.5,66.1 40.3,62.2 38,59.8 C35.7,62.2 31.4,66.1 26.5,66.5 C21.3,66.9 16.7,64.4 17,59.4 C17.1,57.7 18.1,55.4 20.6,55.6 C20.8,55.6 21,55.7 21.2,55.7 C22.2,55.9 23,56.8 23,57.8 C23,59 21.9,60 20.6,60 C19.4,60 18.4,58.9 18.3,57.9 L18.3,58.1 C17.5,60 19,62.1 20.6,62.4 C26.2,63.3 28.2,54.9 33.4,54.2 C35.3,53.9 36.9,55.6 38,56.6 C39.1,55.6 40.7,54 42.6,54.2 C47.8,54.9 49.8,63.3 55.4,62.4 C57,62.1 58.5,59.7 57.7,57.8 L57.7,58.1 C57.5,59.2 56.5,60 55.4,60 C54.1,60 53,59 53,57.8 C53,56.8 53.7,55.9 54.8,55.7 C55,55.6 55.2,55.6 55.4,55.6 C58,55.4 58.9,57.7 59,59.4 C59.3,64.4 54.7,66.9 49.5,66.5 Z" id="Combined-Shape" fill="#FFFFFF"></path>
        <path d="M70.5,15 C56.9,11.8 44.6,0.8 38.4,0.8 C32.2,0.8 19.9,11.8 6.3,15 C4.1,15.5 3.3,17.4 4.8,18.8 C8.1,21.6 13.5,21.8 13.9,25 C14.2,25 14.6,25.1 15.1,25.2 C15.5,25.3 16,25.3 16.5,25.4 C21,26 29.8,27 38.1,27 C46.3,27 55.5,26 60.2,25.3 C61.9,25.1 63,24.9 63,24.9 C63.3,21.7 68.8,21.4 71.8,18.4 C73.2,17.4 72.4,15.5 70.5,15 Z M49.8,18 C46.7,20 43.2,21.3 39.5,21.8 L39.5,22 C41.9,21.8 44.1,21.3 46.2,20.6 C46.1,21.2 46.1,21.9 46.2,22.5 C44.2,22.6 41.9,22.7 39.6,22.6 L39.6,22.9 C40.7,23 41.9,23.1 42.9,23.1 C42.9,23.5 42.9,23.8 43,24.2 C41.8,23.9 40.6,23.7 39.4,23.5 L38,23.5 C36.8,23.7 35.6,24 34.4,24.2 C34.4,23.8 34.4,23.4 34.5,23.1 C35.5,23 36.6,23 37.7,22.9 L37.7,22.6 C35.4,22.7 33.2,22.6 31.2,22.5 L31.2,20.6 C33.2,21.3 35.4,21.7 37.8,21.9 L37.8,21.6 C34.1,21.1 30.7,19.8 27.6,17.8 C27.3,16.7 26.9,15.6 26.3,14.4 C30.1,17.8 34,19.9 37.9,20.9 L37.9,19 L35.9,18.7 L39.7,17.6 L39.7,21.1 C43.6,20.1 47.5,18 51.4,14.6 C50.6,15.8 50.2,16.9 49.8,18 Z" id="Combined-Shape" fill="#FFFFFF"></path>
    </g>
</svg>